PathFileType	4	(X/Y/Z)	C:/Users/opensim2020/Desktop/walking_exp_matlab/subject02_walking09_straight_02.trc	
DataRate	CameraRate	NumFrames	NumMarkers	Units	OrigDataRate	OrigDataStartFrame	OrigNumFrames	
100.00	100.00	5	42	mm	100.00	1214	436	
Frame#	Time	LFHD			RFHD			LBHD			RBHD			C7			T10			CLAV			STRN			RBAK			LSHO			LUPA			LELB			LFRM			LWRA			LWRB			LFIN			RSHO			RUPA			RELB			RFRM			RWRA			RWRB			RFIN			LASI			RASI			LPSI			RPSI			LTHI			LKNE			LTIB			LANK			LHEE			LTOE			RTHI			RKNE			RTIB			RANK			RHEE			RTOE			*39			*40			*41			
		X1	Y1	Z1	X2	Y2	Z2	X3	Y3	Z3	X4	Y4	Z4	X5	Y5	Z5	X6	Y6	Z6	X7	Y7	Z7	X8	Y8	Z8	X9	Y9	Z9	X10	Y10	Z10	X11	Y11	Z11	X12	Y12	Z12	X13	Y13	Z13	X14	Y14	Z14	X15	Y15	Z15	X16	Y16	Z16	X17	Y17	Z17	X18	Y18	Z18	X19	Y19	Z19	X20	Y20	Z20	X21	Y21	Z21	X22	Y22	Z22	X23	Y23	Z23	X24	Y24	Z24	X25	Y25	Z25	X26	Y26	Z26	X27	Y27	Z27	X28	Y28	Z28	X29	Y29	Z29	X30	Y30	Z30	X31	Y31	Z31	X32	Y32	Z32	X33	Y33	Z33	X34	Y34	Z34	X35	Y35	Z35	X36	Y36	Z36	X37	Y37	Z37	X38	Y38	Z38	X39	Y39	Z39	X40	Y40	Z40	X41	Y41	Z41	X42	Y42	Z42	

1	0.000	954.33966	1980.80176	1737.72241	821.06970	1950.14807	1697.86353	935.70154	2119.31543	1681.72583	798.34125	2097.82813	1642.84753	841.16553	2162.93945	1531.32251	808.62799	2208.51978	1252.68750	932.78632	2057.75244	1461.72571	966.42377	2016.96484	1290.75208	760.77502	2178.81738	1350.31909	1027.25281	2210.92114	1517.20435	1098.30103	2269.17627	1321.87720	1122.51770	2274.27344	1181.24475	1162.43945	2255.98584	1054.72144	1190.95837	2171.90063	944.77582	1193.55005	2228.05835	937.48810	1215.80078	2201.05444	879.13434	733.50720	1994.81482	1482.09399	655.72406	1983.05347	1287.11536	657.63599	1975.77563	1140.34570	653.88940	1949.07312	1022.44073	693.57959	1922.66040	893.67633	644.11359	1949.96313	892.13580	658.21777	1920.64966	826.56793	1057.61011	2121.57251	986.16144	874.95953	1948.21741	986.41736	858.49384	2223.54761	1035.70972	769.46289	2147.89258	1037.30103	1021.03400	2279.65601	691.16565	990.63623	2307.10059	503.55334	890.73029	2411.44873	377.42911	805.19910	2488.89063	183.56528	742.10876	2469.59961	176.70248	886.03241	2450.65869	51.35628	806.17896	1924.19043	682.75977	865.53284	1928.83105	478.42694	850.05542	1947.65906	290.14484	881.02008	1980.65051	100.13219	908.16431	2042.36890	49.19949	957.07513	1848.83215	47.33297	833.43066	2045.21948	1800.88806	-3360.29858	2845.23242	1034.11487			 
2	0.010	956.50470	1974.37378	1739.33289	823.15668	1943.90796	1699.51880	938.29620	2112.80151	1683.03735	800.87524	2091.44922	1643.95703	843.76715	2156.22412	1532.34998	811.13342	2201.29614	1253.68652	935.54230	2050.93042	1463.16418	968.83356	2009.64050	1291.98865	763.48486	2171.59497	1351.32092	1029.68298	2204.41772	1518.59680	1099.63574	2262.94263	1322.86133	1122.08801	2268.56665	1181.84070	1160.55054	2251.32349	1054.74597	1187.65173	2167.94141	943.75549	1190.39844	2224.20166	936.91827	1212.12183	2197.96631	878.27899	736.05334	1988.62561	1484.01270	658.29041	1975.66089	1288.92493	660.47760	1967.46594	1142.07568	657.12817	1939.87488	1024.18738	697.37805	1912.67310	895.80988	647.56586	1940.17859	894.00964	662.06042	1910.43091	828.67157	1059.84119	2114.62109	987.65900	877.94916	1941.02905	986.80164	860.77979	2216.22388	1037.13550	772.02692	2139.88452	1038.93530	1031.07971	2268.57422	690.93768	1001.07977	2296.41211	503.62619	901.69904	2402.17163	379.83371	813.23645	2481.88770	188.87769	749.59851	2463.14502	183.21262	890.01788	2445.97705	54.19920	807.76062	1919.59351	683.07611	866.02338	1926.38550	478.07428	850.16907	1946.16443	290.03479	880.86835	1980.44873	100.05397	907.94922	2042.41724	49.12454	957.31836	1848.92480	47.40453	835.07208	2038.86182	1802.09790	-3356.91699	2845.92163	1034.04932			 
3	0.020	958.63171	1968.00586	1740.93774	825.35333	1938.29248	1700.95239	940.97186	2106.37451	1684.23267	804.80524	2086.57202	1645.10840	846.35962	2149.54224	1533.40942	813.57104	2194.03687	1254.73157	938.01025	2044.07922	1464.32202	971.49811	2002.66138	1293.29297	766.14874	2164.33472	1352.32166	1031.80493	2197.51245	1519.41101	1101.77197	2257.28931	1324.03674	1121.90686	2262.98145	1182.12988	1158.70276	2246.76123	1054.68127	1184.38135	2164.22046	942.60492	1188.62122	2221.38623	937.15619	1207.17749	2194.19995	876.46216	738.74829	1981.86145	1485.50342	660.73260	1968.40039	1290.72534	663.10620	1959.23303	1143.72827	659.94672	1931.08374	1026.10278	700.73810	1903.09644	898.01813	651.12482	1930.21667	895.72217	665.84979	1899.99866	830.68671	1062.53943	2108.02246	988.97870	881.24341	1934.16724	987.19232	862.80182	2208.96313	1038.47021	774.48798	2132.13037	1040.49927	1040.98547	2257.24121	690.69434	1011.38281	2285.47241	503.68375	912.23798	2392.35938	381.44955	820.97046	2474.25513	193.98135	757.19061	2455.93701	188.87045	897.09637	2440.70264	58.43617	809.24750	1915.08447	683.45233	866.27460	1924.18298	477.92795	850.19464	1944.88745	289.91168	880.49768	1980.23804	99.99335	907.80493	2042.47278	49.08882	957.04657	1848.98914	47.19649	837.75354	2033.39246	1803.32397	-3357.01563	2845.97754	1033.99292			 
4	0.030	961.97461	1962.74500	1742.99316	828.55750	1934.36890	1702.21094	943.54028	2099.97803	1685.38562	808.32611	2081.48535	1646.30615	848.91888	2142.89502	1534.47498	815.94562	2186.83569	1255.86438	941.02637	2037.54077	1465.73279	974.56073	1996.00171	1294.72522	768.60315	2157.19165	1353.47888	1034.29785	2191.21118	1520.51843	1103.08655	2251.23682	1324.83374	1121.60229	2257.43164	1182.57947	1156.91394	2242.29834	1054.58276	1181.52209	2160.81738	941.60651	1186.32678	2218.48169	937.05573	1203.79004	2191.69312	875.62946	741.95404	1974.51367	1486.87305	663.33514	1961.00464	1292.35876	665.62921	1951.09192	1145.34583	663.03796	1922.08948	1027.97986	704.44025	1893.05103	900.19257	654.81152	1920.22449	897.48517	669.89471	1889.28809	832.88165	1065.02136	2101.57788	990.14886	884.20508	1927.55103	987.36780	864.76178	2201.84937	1039.61487	776.81030	2124.63550	1041.93140	1050.92773	2245.79858	690.59027	1021.72266	2274.42285	503.88040	922.75677	2382.66235	383.51770	828.39783	2465.65356	198.14069	764.98456	2447.75293	193.21761	906.24725	2434.21484	63.36299	810.79962	1910.63818	683.81091	866.44067	1922.17554	477.80292	850.17743	1943.84851	289.84506	880.51324	1980.23035	100.05155	907.61029	2042.53918	49.04391	957.39087	1849.12854	47.33149	840.00684	2027.67480	1804.52148	-3360.21387	2845.16431	1034.09082			 
5	0.040	963.24286	1955.79370	1744.23206	830.07074	1926.37598	1703.46619	946.11688	2093.69458	1686.49634	810.10840	2074.19409	1646.97083	851.83057	2136.48291	1535.48621	818.18665	2179.82153	1256.95483	943.74640	2030.89612	1466.90625	976.62604	1988.62073	1295.60254	770.98230	2150.03882	1354.70874	1037.34546	2185.45605	1521.77673	1104.55359	2245.43408	1325.54211	1121.61182	2252.17700	1183.09973	1155.36548	2238.02295	1054.60339	1178.82556	2157.56006	940.51099	1184.55640	2215.91992	936.96844	1200.00317	2189.12109	874.47656	744.88629	1968.11304	1488.56812	665.99640	1953.56824	1293.93225	668.15845	1942.90247	1146.84546	666.22772	1912.83276	1029.45483	708.23865	1882.94653	902.33099	658.41803	1910.00439	899.01251	674.01941	1878.41614	834.96454	1067.73401	2095.75781	991.20520	887.18420	1921.21045	987.47650	866.61316	2195.08887	1040.81641	778.97583	2117.55811	1043.53735	1060.63843	2234.23682	690.72339	1031.83105	2263.25464	504.31448	933.08618	2372.71558	386.17331	836.62714	2456.36621	201.85417	773.04889	2438.40308	196.17148	915.99097	2426.45215	67.64435	812.32886	1906.35156	684.02856	866.50580	1920.35571	477.42621	850.02631	1943.03479	289.79953	880.24774	1980.12097	99.98936	907.52936	2042.62878	49.04107	957.36682	1849.20215	47.29058	842.22717	2022.02649	1805.64490	-3356.94067	2845.66577	1034.13586			 
